<?xml version="1.0" encoding="utf-8"?>
<!-- Generator: Adobe Illustrator 15.0.0, SVG Export Plug-In . SVG Version: 6.00 Build 0)  -->
<!DOCTYPE svg PUBLIC "-//W3C//DTD SVG 1.1//EN" "http://www.w3.org/Graphics/SVG/1.1/DTD/svg11.dtd">
<svg version="1.1" id="Ebene_1" xmlns="http://www.w3.org/2000/svg" xmlns:xlink="http://www.w3.org/1999/xlink" x="0px" y="0px"
	 width="180px" height="390px" viewBox="0 0 180 390" enable-background="new 0 0 180 390" xml:space="preserve">
<linearGradient id="SVGID_1_" gradientUnits="userSpaceOnUse" x1="90" y1="390" x2="90" y2="0">
	<stop  offset="0.1718" style="stop-color:#EEF6FF"/>
	<stop  offset="0.9" style="stop-color:#DFF0FF"/>
</linearGradient>
<rect fill="url(#SVGID_1_)" width="180" height="390"/>
<linearGradient id="SVGID_3_" gradientUnits="userSpaceOnUse" x1="89.75" y1="390.5" x2="89.75" y2="0.4858">
	<stop  offset="0.1718" style="stop-color:#EEF6FF"/>
	<stop  offset="0.598" style="stop-color:#CAE6FF"/>
	<stop  offset="0.9" style="stop-color:#CAE6FF"/>
</linearGradient>
<path fill="url(#SVGID_3_)" d="M179.987,390l0.013-0.001V390H179.987z M-0.5,74.998l12.578-1.027l-1.283-13.899L-0.5,61.002v-1.004
	l11.338-0.923l-1.284-13.9L-0.5,46.002v-1.004l10.096-0.82L8.312,30.278L-0.5,31.002v-1.004l8.854-0.716L7.071,15.382l-7.571,0.62
	v-1.004l7.613-0.613L5.83,0.486L-0.5,1.002V0.5h12.527L7.201,0.652l1.158,13.774l13.9-0.971L21.164,0.5h1.004l1.088,12.81
	l13.9-1.033L36.164,0.5h1.004l0.984,11.569l13.9-1.033L51.164,0.5h1.004l0.881,10.328l13.9-1.033L66.164,0.5h1.004l0.777,9.086
	l13.9-1.034L81.164,0.5h1.004l0.674,7.845l13.9-1.034L96.164,0.5h1.004l0.57,6.604l13.9-1.033l-0.475-5.57h1.004l0.467,5.362
	l13.9-1.033L126.164,0.5h1.004l0.363,4.121l13.9-1.033L141.164,0.5h1.004l0.26,2.88l13.9-1.033L156.164,0.5h1.004l0.156,1.639
	l13.9-1.034L171.164,0.5h1.004l0.053,0.647l7.766-0.647H179.5v0.502l-7.445,0.641l1.033,13.9l6.412-0.545v1.004l-6.204,0.538
	l1.033,13.9l5.171-0.442v1.003l-4.963,0.435l1.033,13.9l3.93-0.338v1.003l-3.722,0.331l1.034,13.901l2.688-0.235v1.003l-2.48,0.228
	l1.033,13.9l1.447-0.131v1.004l-1.238,0.124l1.033,13.9l0.205-0.028v1.004l-0.248,0.021l0.248,2.975v12.028l0.248-0.023
	l-13.775,1.159l0.971,13.899l12.557-1.062v1.003l-12.411,1.055l1.033,13.9l11.378-0.959v1.003l-11.17,0.952l1.033,13.9l10.137-0.855
	v1.003l-9.929,0.849l1.034,13.9l8.895-0.752v1.003l-8.688,0.746l1.033,13.899l7.654-0.648v1.004l-7.445,0.641l1.033,13.9
	l6.412-0.545v1.003l-6.205,0.538l1.034,13.9l5.171-0.442v1.004l-4.963,0.435l1.033,13.9l3.93-0.339v1.004l-3.722,0.331l1.032,13.901
	l2.689-0.236v1.004l-2.48,0.228l1.033,13.9l1.447-0.132v1.004l-1.238,0.125l1.033,13.899l0.205-0.027v1.003l-0.248,0.021L179.5,274
	v12.025l0.248-0.023l-13.775,1.159l0.971,13.899l12.557-1.062v1.004l-12.411,1.055l1.033,13.9l11.378-0.958v1.003l-11.17,0.952
	l1.033,13.899l10.137-0.854v1.003l-9.929,0.849l1.033,13.899l8.896-0.751v1.003l-8.688,0.746l1.033,13.898l7.654-0.647v1.003
	l-7.445,0.642l1.033,13.9l6.412-0.545v1.003l-6.205,0.788l1.371,13.71h-1.002l-1.115-13.627l-13.9,1.283l1.018,12.344h-1.002
	l-1.012-12.385l-13.9,1.283l0.914,11.102h-1.002l-0.908-11.145l-13.9,1.283l0.811,9.861h-1.002l-0.805-9.902l-13.9,1.283
	l0.709,8.619h-1.004l-0.701-8.661l-13.9,1.284l0.605,7.377h-1.004l-0.598-7.42l-13.9,1.283l0.502,6.137h-1.004l-0.494-6.179
	l-13.9,1.283l0.398,4.896h-1.004l-0.391-4.938l-13.9,1.283l0.295,3.654h-1.004l-0.287-3.695l-13.9,1.283l0.191,2.412h-1.004
	l-0.184-2.455l-13.9,1.284l0.088,1.171h-1.004l-0.08-0.963L12.027,390.5H-0.5v-0.502l8.854-0.717L7.07,375.382l-7.57,0.62v-1.004
	l7.613-0.613L5.83,360.486l-6.33,0.516v-1.004l6.371-0.51l-1.283-13.899l-5.088,0.413v-1.004l5.13-0.406l-1.283-13.9l-3.847,0.311
	v-1.004l3.889-0.303l-1.283-13.9l-2.605,0.207v-1.004l2.647-0.199l-1.283-13.9l-1.364,0.104v-1.004l1.156-0.096L-0.5,286.025V274
	l1.16,10.922l14.025-1.158l-1.346-13.898l-13.84,1.137v-1.004l13.82-1.131l-1.283-13.898L-0.5,256.002v-1.004l12.578-1.027
	l-1.283-13.899L-0.5,241.002v-1.004l11.337-0.924l-1.283-13.899L-0.5,226.002v-1.004l10.096-0.82l-1.283-13.899l-8.812,0.724v-1.004
	l8.854-0.717l-1.283-13.899l-7.571,0.62v-1.004l7.613-0.613L5.83,180.486l-6.33,0.517v-1.005l6.371-0.509l-1.283-13.9l-5.088,0.414
	v-1.004l5.131-0.406l-1.283-13.899l-3.848,0.31v-1.004l3.889-0.303l-1.283-13.899l-2.605,0.207v-1.004l2.647-0.199l-1.283-13.899
	l-1.364,0.103v-1.004l1.156-0.095L-0.5,106.026V93.998l1.161,10.925l14.025-1.159L13.34,89.865L-0.5,91.002v-1.004l13.82-1.131
	l-1.283-13.898L-0.5,76.002V74.998z M14.566,88.784l13.9-1.158l-1.158-13.899l-13.9,1.158L14.566,88.784z M76.717,294.609
	l1.16,13.899l13.9-1.158l-1.159-13.899L76.717,294.609z M90.535,292.454l-1.158-13.899l-13.9,1.158l1.158,13.899L90.535,292.454z
	 M91.531,292.371l13.9-1.158l-1.158-13.9l-13.9,1.158L91.531,292.371z M104.19,276.316l-1.159-13.9l-13.899,1.158l1.158,13.9
	L104.19,276.316z M102.949,261.42l-1.158-13.9l-13.9,1.158l1.158,13.9L102.949,261.42z M101.708,246.523l-1.159-13.9l-13.9,1.158
	l1.158,13.9L101.708,246.523z M100.467,231.627l-1.158-13.9l-13.9,1.158l1.158,13.9L100.467,231.627z M99.225,216.73l-1.158-13.9
	l-13.9,1.158l1.158,13.9L99.225,216.73z M97.984,201.833l-1.159-13.899l-13.9,1.159l1.158,13.9L97.984,201.833z M96.742,186.937
	l-1.158-13.899l-13.9,1.158l1.158,13.9L96.742,186.937z M95.502,172.04l-1.159-13.9l-13.9,1.159l1.158,13.9L95.502,172.04z
	 M94.26,157.144l-1.158-13.9l-13.9,1.159l1.158,13.899L94.26,157.144z M93.018,142.248l-1.158-13.9l-13.9,1.159l1.158,13.899
	L93.018,142.248z M91.777,127.351l-1.158-13.9l-13.9,1.158l1.158,13.9L91.777,127.351z M90.535,112.454l-1.158-13.899l-13.9,1.158
	l1.158,13.9L90.535,112.454z M91.531,112.371l13.9-1.159l-1.158-13.9l-13.9,1.159L91.531,112.371z M104.19,96.316l-1.159-13.9
	l-13.899,1.159l1.158,13.9L104.19,96.316z M88.135,83.658l-13.9,1.158l1.159,13.9l13.9-1.159L88.135,83.658z M74.48,99.795
	l-13.9,1.159l1.158,13.899l13.9-1.158L74.48,99.795z M61.821,115.851l1.159,13.899l13.9-1.158l-1.158-13.9L61.821,115.851z
	 M63.062,130.748l1.158,13.899l13.9-1.158l-1.158-13.9L63.062,130.748z M64.305,145.644l1.158,13.899l13.9-1.158l-1.158-13.899
	L64.305,145.644z M65.546,160.54l1.158,13.9l13.9-1.159l-1.158-13.899L65.546,160.54z M66.787,175.437l1.158,13.9l13.9-1.158
	l-1.158-13.9L66.787,175.437z M68.028,190.333l1.157,13.899l13.9-1.158l-1.157-13.899L68.028,190.333z M69.27,205.229l1.158,13.9
	l13.9-1.159l-1.158-13.899L69.27,205.229z M70.512,220.127l1.158,13.898l13.9-1.158l-1.158-13.898L70.512,220.127z M71.752,235.023
	l1.158,13.898l13.9-1.158l-1.158-13.898L71.752,235.023z M72.994,249.92l1.158,13.899l13.9-1.158l-1.158-13.9L72.994,249.92z
	 M74.234,264.816l1.159,13.9l13.9-1.159l-1.159-13.899L74.234,264.816z M74.48,279.795l-13.9,1.159l1.158,13.899l13.9-1.158
	L74.48,279.795z M61.821,295.851l1.158,13.899l13.901-1.158l-1.159-13.9L61.821,295.851z M63.062,310.748l1.158,13.898l13.9-1.158
	l-1.158-13.899L63.062,310.748z M79.117,323.405l13.9-1.157l-1.158-13.9l-13.9,1.158L79.117,323.405z M94.014,322.164l13.9-1.158
	l-1.158-13.9l-13.9,1.158L94.014,322.164z M106.674,306.11l-1.158-13.9l-13.901,1.157l1.159,13.9L106.674,306.11z M106.428,291.13
	l13.9-1.159l-1.158-13.899l-13.9,1.158L106.428,291.13z M119.086,275.074l-1.157-13.899l-13.9,1.158l1.157,13.899L119.086,275.074z
	 M117.846,260.179l-1.158-13.9l-13.9,1.158l1.158,13.899L117.846,260.179z M116.604,245.281l-1.158-13.899l-13.901,1.158
	l1.159,13.899L116.604,245.281z M115.363,230.385l-1.158-13.898l-13.9,1.157l1.158,13.9L115.363,230.385z M114.121,215.488
	l-1.158-13.9l-13.9,1.16l1.158,13.898L114.121,215.488z M112.881,200.592l-1.159-13.9l-13.9,1.159l1.159,13.899L112.881,200.592z
	 M111.639,185.695l-1.158-13.9l-13.9,1.159l1.158,13.899L111.639,185.695z M110.397,170.799l-1.158-13.9l-13.9,1.158l1.158,13.899
	L110.397,170.799z M109.156,155.902l-1.158-13.9l-13.9,1.159l1.158,13.899L109.156,155.902z M107.915,141.006l-1.159-13.9
	l-13.9,1.158l1.158,13.9L107.915,141.006z M106.674,126.11l-1.158-13.9l-13.9,1.158l1.158,13.9L106.674,126.11z M106.428,111.13
	l13.9-1.159l-1.158-13.9l-13.9,1.158L106.428,111.13z M119.088,95.075l-1.159-13.9l-13.9,1.158l1.157,13.9L119.088,95.075z
	 M117.846,80.179l-1.158-13.9l-13.9,1.158l1.158,13.9L117.846,80.179z M101.791,67.52l-13.9,1.158l1.158,13.9l13.9-1.158
	L101.791,67.52z M86.895,68.761l-13.9,1.159l1.158,13.9l13.9-1.158L86.895,68.761z M71.998,70.002l-13.9,1.159l1.158,13.899
	l13.9-1.158L71.998,70.002z M59.339,86.057l1.158,13.899l13.9-1.158l-1.158-13.9L59.339,86.057z M59.584,101.037l-13.9,1.158
	l1.158,13.899l13.9-1.158L59.584,101.037z M46.925,117.092l1.158,13.899l13.901-1.158l-1.159-13.899L46.925,117.092z
	 M48.166,131.988l1.158,13.899l13.9-1.158l-1.158-13.899L48.166,131.988z M49.408,146.885l1.158,13.9l13.9-1.159l-1.158-13.899
	L49.408,146.885z M50.648,161.781l1.159,13.9l13.9-1.158l-1.159-13.9L50.648,161.781z M51.891,176.678l1.158,13.9l13.9-1.158
	l-1.158-13.9L51.891,176.678z M53.132,191.575l1.158,13.9l13.9-1.158l-1.159-13.9L53.132,191.575z M54.373,206.471l1.158,13.9
	l13.9-1.158l-1.158-13.9L54.373,206.471z M55.615,221.367l1.158,13.9l13.9-1.158l-1.158-13.899L55.615,221.367z M56.855,236.264
	l1.158,13.9l13.9-1.158l-1.158-13.9L56.855,236.264z M58.098,251.161l1.158,13.899l13.9-1.158l-1.158-13.9L58.098,251.161z
	 M59.339,266.057l1.158,13.9l13.9-1.158l-1.158-13.9L59.339,266.057z M59.584,281.037l-13.9,1.158l1.158,13.899l13.9-1.158
	L59.584,281.037z M46.925,297.092l1.158,13.899l13.899-1.158l-1.157-13.899L46.925,297.092z M48.166,311.988l1.158,13.9l13.9-1.159
	l-1.158-13.899L48.166,311.988z M49.408,326.885l1.158,13.9l13.9-1.159l-1.158-13.899L49.408,326.885z M65.463,339.543l13.9-1.158
	l-1.158-13.898l-13.9,1.157L65.463,339.543z M80.359,338.302l13.9-1.158l-1.158-13.899l-13.9,1.158L80.359,338.302z M95.256,337.061
	l13.9-1.158l-1.158-13.9l-13.9,1.159L95.256,337.061z M110.152,335.819l13.9-1.158l-1.158-13.9l-13.9,1.159L110.152,335.819z
	 M122.811,319.766l-1.158-13.9l-13.9,1.158l1.158,13.899L122.811,319.766z M121.57,304.867l-1.158-13.898l-13.9,1.158l1.158,13.899
	L121.57,304.867z M121.324,289.889l13.9-1.158l-1.158-13.9l-13.9,1.158L121.324,289.889z M133.982,273.834l-1.157-13.9l-13.9,1.158
	l1.158,13.9L133.982,273.834z M132.742,258.938l-1.158-13.9l-13.9,1.158l1.158,13.9L132.742,258.938z M131.502,244.04l-1.159-13.899
	l-13.9,1.158l1.158,13.9L131.502,244.04z M130.26,229.144l-1.158-13.899l-13.9,1.158l1.158,13.9L130.26,229.144z M129.018,214.248
	l-1.158-13.9l-13.9,1.158l1.158,13.899L129.018,214.248z M127.777,199.351l-1.158-13.9l-13.902,1.158l1.16,13.9L127.777,199.351z
	 M126.535,184.454l-1.158-13.899l-13.9,1.158l1.158,13.9L126.535,184.454z M125.294,169.558l-1.159-13.9l-13.9,1.158l1.159,13.9
	L125.294,169.558z M124.053,154.661l-1.158-13.9l-13.9,1.159l1.158,13.9L124.053,154.661z M122.812,139.765l-1.159-13.9l-13.9,1.158
	l1.159,13.9L122.812,139.765z M121.57,124.868l-1.158-13.899l-13.9,1.158l1.158,13.9L121.57,124.868z M121.324,109.888l13.9-1.158
	l-1.158-13.9l-13.9,1.158L121.324,109.888z M133.984,93.833l-1.158-13.9l-13.901,1.159l1.159,13.899L133.984,93.833z
	 M132.742,78.937l-1.158-13.9l-13.9,1.158l1.158,13.9L132.742,78.937z M131.502,64.04l-1.159-13.9l-13.9,1.159l1.158,13.9
	L131.502,64.04z M115.446,51.382l-13.9,1.158l1.158,13.9l13.9-1.158L115.446,51.382z M100.549,52.623l-13.899,1.159l1.158,13.9
	l13.9-1.158L100.549,52.623z M85.652,53.865l-13.9,1.158l1.159,13.899l13.9-1.158L85.652,53.865z M70.756,55.106l-13.9,1.158
	l1.158,13.9l13.901-1.158L70.756,55.106z M57.102,71.244l-13.9,1.159l1.158,13.899l13.9-1.158L57.102,71.244z M44.442,87.299
	l1.158,13.9l13.901-1.159l-1.159-13.9L44.442,87.299z M44.688,102.278l-13.9,1.158l1.158,13.899l13.9-1.158L44.688,102.278z
	 M32.028,118.333l1.157,13.9l13.901-1.158l-1.158-13.9L32.028,118.333z M33.27,133.229l1.158,13.9l13.9-1.159l-1.158-13.899
	L33.27,133.229z M34.512,148.126l1.158,13.899l13.9-1.158l-1.158-13.899L34.512,148.126z M35.752,163.023l1.158,13.899l13.901-1.158
	l-1.159-13.899L35.752,163.023z M36.994,177.919l1.158,13.899l13.9-1.158l-1.158-13.9L36.994,177.919z M38.234,192.816l1.159,13.899
	l13.9-1.158l-1.159-13.899L38.234,192.816z M39.477,207.713l1.158,13.899l13.9-1.159l-1.158-13.898L39.477,207.713z M40.717,222.609
	l1.16,13.899l13.9-1.158l-1.158-13.899L40.717,222.609z M41.959,237.506l1.158,13.899l13.9-1.157l-1.158-13.9L41.959,237.506z
	 M43.201,252.402l1.158,13.899l13.9-1.158l-1.158-13.899L43.201,252.402z M44.442,267.299l1.158,13.9l13.901-1.159l-1.159-13.899
	L44.442,267.299z M44.688,282.278l-13.9,1.158l1.158,13.899l13.9-1.158L44.688,282.278z M32.028,298.333l1.157,13.899l13.901-1.158
	l-1.158-13.899L32.028,298.333z M33.27,313.229l1.158,13.9l13.9-1.159l-1.158-13.899L33.27,313.229z M34.512,328.127l1.158,13.898
	l13.9-1.158l-1.158-13.898L34.512,328.127z M35.752,343.023l1.158,13.898l13.9-1.158l-1.158-13.898L35.752,343.023z M51.807,355.682
	l13.9-1.158l-1.158-13.9l-13.9,1.158L51.807,355.682z M66.703,354.439l13.901-1.158l-1.159-13.899l-13.9,1.158L66.703,354.439z
	 M81.601,353.199l13.901-1.159l-1.159-13.899l-13.901,1.158L81.601,353.199z M96.497,351.957l13.9-1.158l-1.158-13.9l-13.9,1.158
	L96.497,351.957z M111.394,350.717l13.9-1.159l-1.159-13.899l-13.9,1.158L111.394,350.717z M126.29,349.475l13.9-1.158l-1.159-13.9
	l-13.899,1.158L126.29,349.475z M138.949,333.42l-1.158-13.9l-13.9,1.158l1.158,13.9L138.949,333.42z M137.708,318.523l-1.159-13.9
	l-13.9,1.158l1.158,13.9L137.708,318.523z M136.467,303.627l-1.158-13.9l-13.9,1.158l1.158,13.9L136.467,303.627z M136.221,288.646
	l13.9-1.158l-1.158-13.899l-13.9,1.159L136.221,288.646z M148.881,272.592l-1.159-13.9l-13.9,1.159l1.158,13.899L148.881,272.592z
	 M147.639,257.695l-1.158-13.9l-13.9,1.159l1.158,13.899L147.639,257.695z M146.397,242.799l-1.158-13.9l-13.9,1.158l1.158,13.9
	L146.397,242.799z M145.156,227.902l-1.158-13.9l-13.9,1.159l1.158,13.899L145.156,227.902z M143.914,213.006l-1.158-13.9
	l-13.9,1.158l1.158,13.9L143.914,213.006z M142.674,198.11l-1.158-13.9l-13.9,1.158l1.158,13.9L142.674,198.11z M141.432,183.213
	l-1.158-13.9l-13.9,1.159l1.158,13.9L141.432,183.213z M140.19,168.316l-1.159-13.9l-13.899,1.159l1.158,13.9L140.19,168.316z
	 M138.949,153.419l-1.158-13.9l-13.9,1.158l1.158,13.9L138.949,153.419z M137.708,138.523l-1.159-13.9l-13.9,1.159l1.159,13.9
	L137.708,138.523z M136.467,123.626l-1.158-13.9l-13.9,1.158l1.158,13.9L136.467,123.626z M136.221,108.647l13.9-1.158l-1.158-13.9
	l-13.9,1.159L136.221,108.647z M148.881,92.592l-1.158-13.9l-13.9,1.159l1.158,13.9L148.881,92.592z M147.639,77.695l-1.158-13.9
	l-13.9,1.159l1.158,13.9L147.639,77.695z M146.397,62.799l-1.158-13.9l-13.9,1.158l1.158,13.899L146.397,62.799z M145.156,47.902
	l-1.158-13.9l-13.9,1.159l1.158,13.899L145.156,47.902z M129.102,35.244l-13.9,1.159l1.158,13.9l13.9-1.159L129.102,35.244z
	 M114.205,36.486l-13.9,1.158l1.158,13.9l13.9-1.159L114.205,36.486z M99.309,37.727l-13.9,1.158l1.158,13.9l13.9-1.159
	L99.309,37.727z M84.412,38.969l-13.9,1.158l1.158,13.899l13.9-1.158L84.412,38.969z M69.516,40.21l-13.9,1.158l1.158,13.899
	l13.9-1.158L69.516,40.21z M54.619,41.451l-13.9,1.158l1.158,13.9l13.9-1.159L54.619,41.451z M41.959,57.506l1.158,13.899
	l13.9-1.158l-1.158-13.9L41.959,57.506z M42.205,72.486l-13.9,1.158l1.158,13.899l13.9-1.158L42.205,72.486z M29.546,88.54
	l1.158,13.9l13.9-1.159l-1.158-13.899L29.546,88.54z M29.791,103.52l-13.9,1.158l1.158,13.9l13.9-1.159L29.791,103.52z
	 M17.132,119.575l1.158,13.899l13.9-1.158l-1.159-13.9L17.132,119.575z M18.373,134.471l1.158,13.899l13.9-1.158l-1.158-13.9
	L18.373,134.471z M19.615,149.368l1.158,13.899l13.9-1.158l-1.158-13.899L19.615,149.368z M20.855,164.264l1.158,13.899l13.9-1.157
	l-1.158-13.9L20.855,164.264z M22.098,179.161l1.158,13.899l13.9-1.158l-1.158-13.9L22.098,179.161z M23.339,194.057l1.158,13.9
	l13.9-1.158l-1.158-13.9L23.339,194.057z M24.58,208.954l1.158,13.899l13.9-1.158l-1.158-13.9L24.58,208.954z M25.821,223.851
	l1.158,13.899l13.901-1.158l-1.159-13.9L25.821,223.851z M27.062,238.748l1.158,13.898l13.9-1.158l-1.158-13.9L27.062,238.748z
	 M28.305,253.644l1.158,13.899l13.9-1.158l-1.158-13.898L28.305,253.644z M29.545,268.54l1.159,13.899l13.9-1.158l-1.158-13.899
	L29.545,268.54z M29.791,283.52l-13.9,1.158l1.158,13.9l13.9-1.159L29.791,283.52z M17.132,299.574l1.158,13.9l13.9-1.158
	l-1.159-13.9L17.132,299.574z M18.373,314.471l1.158,13.9l13.9-1.158l-1.158-13.9L18.373,314.471z M19.614,329.367l1.159,13.9
	l13.9-1.158l-1.158-13.9L19.614,329.367z M20.855,344.264l1.158,13.9l13.9-1.158l-1.158-13.9L20.855,344.264z M22.098,359.161
	l1.158,13.899l13.9-1.158l-1.158-13.9L22.098,359.161z M38.152,371.818l13.9-1.157l-1.158-13.9l-13.9,1.159L38.152,371.818z
	 M53.049,370.578l13.9-1.158l-1.158-13.9l-13.9,1.158L53.049,370.578z M67.945,369.336l13.9-1.157l-1.158-13.9l-13.9,1.158
	L67.945,369.336z M82.842,368.096l13.9-1.159l-1.158-13.899l-13.9,1.158L82.842,368.096z M97.738,366.854l13.9-1.158l-1.158-13.9
	l-13.9,1.159L97.738,366.854z M112.635,365.612l13.9-1.158l-1.158-13.899l-13.9,1.158L112.635,365.612z M127.531,364.371l13.9-1.158
	l-1.158-13.9l-13.9,1.158L127.531,364.371z M142.428,363.13l13.9-1.158l-1.158-13.9l-13.9,1.158L142.428,363.13z M155.086,347.074
	l-1.157-13.899l-13.9,1.158l1.157,13.901L155.086,347.074z M153.846,332.179l-1.158-13.9l-13.9,1.158l1.158,13.9L153.846,332.179z
	 M152.604,317.281l-1.159-13.899l-13.9,1.158l1.159,13.899L152.604,317.281z M151.363,302.385l-1.158-13.898l-13.9,1.157l1.158,13.9
	L151.363,302.385z M151.117,287.406l13.9-1.158l-1.158-13.9l-13.9,1.158L151.117,287.406z M163.777,271.351l-1.158-13.899
	l-13.902,1.158l1.16,13.9L163.777,271.351z M162.535,256.454l-1.158-13.899l-13.9,1.158l1.158,13.899L162.535,256.454z
	 M161.294,241.558l-1.159-13.899l-13.9,1.158l1.159,13.9L161.294,241.558z M160.053,226.661l-1.158-13.9l-13.9,1.159l1.158,13.899
	L160.053,226.661z M158.812,211.766l-1.159-13.9l-13.9,1.158l1.158,13.899L158.812,211.766z M157.57,196.868l-1.158-13.899
	l-13.9,1.158l1.158,13.9L157.57,196.868z M156.328,181.972l-1.158-13.9l-13.9,1.158l1.158,13.9L156.328,181.972z M155.088,167.075
	l-1.159-13.9l-13.9,1.158l1.157,13.901L155.088,167.075z M153.846,152.179l-1.158-13.9l-13.9,1.158l1.158,13.9L153.846,152.179z
	 M152.604,137.282l-1.158-13.9l-13.9,1.158l1.158,13.9L152.604,137.282z M151.363,122.385l-1.158-13.899l-13.9,1.158l1.158,13.9
	L151.363,122.385z M151.117,107.406l13.9-1.158l-1.158-13.9l-13.9,1.159L151.117,107.406z M163.777,91.351l-1.158-13.9l-13.9,1.158
	l1.158,13.9L163.777,91.351z M162.535,76.454l-1.158-13.899l-13.9,1.158l1.158,13.9L162.535,76.454z M161.294,61.558l-1.159-13.9
	l-13.9,1.158l1.159,13.9L161.294,61.558z M160.053,46.661l-1.158-13.9l-13.9,1.159l1.158,13.9L160.053,46.661z M158.812,31.765
	l-1.159-13.9l-13.9,1.158l1.159,13.9L158.812,31.765z M142.756,19.106l-13.9,1.158l1.158,13.9l13.901-1.158L142.756,19.106z
	 M127.859,20.347l-13.9,1.159l1.158,13.899l13.9-1.158L127.859,20.347z M112.963,21.588l-13.9,1.159l1.158,13.899l13.9-1.159
	L112.963,21.588z M98.066,22.83l-13.9,1.158l1.158,13.9l13.9-1.158L98.066,22.83z M83.17,24.071l-13.9,1.158l1.158,13.9l13.9-1.159
	L83.17,24.071z M68.273,25.312l-13.9,1.159l1.158,13.899l13.9-1.158L68.273,25.312z M53.377,26.555l-13.9,1.158l1.158,13.9
	l13.9-1.159L53.377,26.555z M38.48,27.795l-13.9,1.159l1.158,13.899l13.9-1.158L38.48,27.795z M25.822,43.851L26.98,57.75
	l13.9-1.158l-1.158-13.9L25.822,43.851z M27.062,58.748l1.158,13.899l13.9-1.158l-1.158-13.9L27.062,58.748z M15.808,103.681
	l13.9-1.159l-1.159-13.9l-13.899,1.159L15.808,103.681z M2.152,119.819l13.9-1.158l-1.158-13.9l-13.9,1.159L2.152,119.819z
	 M3.394,134.715l13.9-1.158l-1.159-13.899l-13.9,1.158L3.394,134.715z M4.635,149.612l13.9-1.159l-1.158-13.899l-13.9,1.158
	L4.635,149.612z M5.877,164.508l13.9-1.158l-1.158-13.899l-13.9,1.158L5.877,164.508z M7.117,179.405l13.9-1.159l-1.158-13.899
	l-13.9,1.159L7.117,179.405z M8.359,194.302l13.9-1.158l-1.158-13.9l-13.9,1.159L8.359,194.302z M9.601,209.199l13.901-1.159
	l-1.159-13.9l-13.9,1.159L9.601,209.199z M10.842,224.095l13.9-1.158l-1.158-13.899l-13.9,1.158L10.842,224.095z M12.083,238.991
	l13.899-1.158l-1.157-13.899l-13.9,1.158L12.083,238.991z M13.324,253.888l13.9-1.158l-1.158-13.899l-13.9,1.158L13.324,253.888z
	 M14.566,268.784l13.9-1.158l-1.158-13.899l-13.9,1.158L14.566,268.784z M15.807,283.682l13.901-1.159l-1.159-13.899l-13.9,1.158
	L15.807,283.682z M2.152,299.818l13.9-1.157l-1.158-13.9l-13.9,1.159L2.152,299.818z M3.394,314.715l13.9-1.158l-1.159-13.898
	l-13.9,1.158L3.394,314.715z M4.635,329.612l13.9-1.159l-1.158-13.898l-13.9,1.158L4.635,329.612z M5.877,344.508l13.9-1.158
	l-1.159-13.898l-13.901,1.158L5.877,344.508z M7.117,359.405l13.9-1.159l-1.158-13.898l-13.9,1.158L7.117,359.405z M8.359,374.302
	l13.9-1.158l-1.158-13.899l-13.9,1.158L8.359,374.302z M23.502,388.04l-1.16-13.899l-13.9,1.158l1.158,13.9L23.502,388.04z
	 M38.397,386.799l-1.158-13.9l-13.901,1.158l1.159,13.9L38.397,386.799z M53.294,385.557l-1.159-13.898l-13.9,1.158l1.159,13.898
	L53.294,385.557z M68.19,384.316l-1.159-13.9l-13.899,1.158l1.158,13.9L68.19,384.316z M83.086,383.074l-1.157-13.899l-13.9,1.158
	l1.157,13.899L83.086,383.074z M97.982,381.833l-1.157-13.899l-13.9,1.158l1.158,13.9L97.982,381.833z M112.88,380.592l-1.158-13.9
	l-13.9,1.159l1.158,13.899L112.88,380.592z M127.777,379.351l-1.159-13.899l-13.901,1.158l1.16,13.899L127.777,379.351z
	 M142.674,378.11l-1.16-13.901l-13.899,1.158l1.159,13.9L142.674,378.11z M157.57,376.868l-1.158-13.899l-13.901,1.158l1.159,13.899
	L157.57,376.868z M171.309,361.727l-13.9,1.158l1.158,13.9l13.9-1.158L171.309,361.727z M170.066,346.83l-13.9,1.158l1.158,13.9
	l13.9-1.158L170.066,346.83z M168.825,331.934l-13.9,1.158l1.158,13.9l13.899-1.158L168.825,331.934z M167.584,317.037l-13.9,1.158
	l1.158,13.9l13.9-1.158L167.584,317.037z M166.343,302.141l-13.901,1.158l1.159,13.9l13.901-1.158L166.343,302.141z
	 M165.102,287.244l-13.9,1.158l1.158,13.9l13.9-1.159L165.102,287.244z M178.756,271.105l-13.9,1.158l1.158,13.9l13.9-1.158
	L178.756,271.105z M177.516,256.21l-13.9,1.157l1.158,13.9l13.9-1.157L177.516,256.21z M176.273,241.312l-13.9,1.158l1.158,13.9
	l13.9-1.158L176.273,241.312z M175.031,226.416l-13.899,1.158l1.158,13.9l13.9-1.158L175.031,226.416z M173.791,211.52l-13.9,1.158
	l1.158,13.9l13.9-1.158L173.791,211.52z M172.549,196.623l-13.9,1.158l1.159,13.9l13.9-1.158L172.549,196.623z M171.309,181.727
	l-13.9,1.158l1.158,13.9l13.9-1.158L171.309,181.727z M170.066,166.83l-13.9,1.158l1.158,13.901l13.9-1.159L170.066,166.83z
	 M168.825,151.934l-13.9,1.159l1.159,13.899l13.9-1.158L168.825,151.934z M167.584,137.037l-13.9,1.158l1.158,13.9l13.9-1.158
	L167.584,137.037z M166.343,122.14l-13.9,1.159l1.158,13.9l13.901-1.158L166.343,122.14z M165.102,107.244l-13.9,1.159l1.158,13.9
	l13.9-1.159L165.102,107.244z M178.756,91.106l-13.9,1.158l1.158,13.9l13.901-1.158L178.756,91.106z M177.516,76.21l-13.9,1.158
	l1.158,13.9l13.9-1.157L177.516,76.21z M176.273,61.312l-13.9,1.159l1.158,13.9l13.9-1.158L176.273,61.312z M175.031,46.416
	l-13.899,1.159l1.158,13.9l13.901-1.158L175.031,46.416z M173.791,31.52l-13.9,1.158l1.158,13.9l13.9-1.158L173.791,31.52z
	 M172.549,16.623l-13.899,1.159l1.158,13.9l13.9-1.158L172.549,16.623z M157.408,2.885l1.158,13.9l13.9-1.158l-1.158-13.9
	L157.408,2.885z M142.512,4.126l1.158,13.9l13.9-1.158l-1.158-13.899L142.512,4.126z M127.615,5.368l1.158,13.9l13.9-1.157
	l-1.158-13.9L127.615,5.368z M112.719,6.609l1.158,13.9l13.9-1.158l-1.158-13.9L112.719,6.609z M97.822,7.851L98.98,21.75
	l13.9-1.158l-1.158-13.9L97.822,7.851z M82.925,9.092l1.159,13.899l13.9-1.159L96.826,7.934L82.925,9.092z M68.028,10.333
	l1.159,13.9l13.9-1.158l-1.159-13.9L68.028,10.333z M53.132,11.575l1.158,13.899l13.901-1.158l-1.16-13.9L53.132,11.575z
	 M38.234,12.816l1.159,13.899l13.9-1.158l-1.159-13.899L38.234,12.816z M23.339,14.057l1.158,13.899l13.9-1.158l-1.158-13.899
	L23.339,14.057z M9.601,29.199l13.901-1.159l-1.159-13.9l-13.9,1.159L9.601,29.199z M10.842,44.095l13.9-1.158l-1.158-13.899
	l-13.9,1.158L10.842,44.095z M12.084,58.991l13.9-1.158l-1.158-13.899l-13.901,1.159L12.084,58.991z M13.324,73.888l13.9-1.158
	L26.066,58.83l-13.9,1.158L13.324,73.888z"/>
</svg>
